<mxfile host="app.diagrams.net" modified="2022-10-25T00:14:17.670Z" agent="5.0 (Windows NT 6.1; WOW64) AppleWebKit/537.36 (KHTML, like Gecko) Chrome/106.0.0.0 Safari/537.36" etag="MSwMBFNB2OoSg5lCm21f" version="20.5.1" type="github">
  <diagram id="6OLs5ElEnDumfnwO7kk8" name="Página-1">
    <mxGraphModel dx="735" dy="678" grid="1" gridSize="10" guides="1" tooltips="1" connect="1" arrows="1" fold="1" page="1" pageScale="1" pageWidth="827" pageHeight="1169" math="0" shadow="0">
      <root>
        <mxCell id="0" />
        <mxCell id="1" parent="0" />
        <mxCell id="fov7g100w5kmryv_c-La-39" value="Usuário" style="swimlane;fontStyle=1;align=center;verticalAlign=top;childLayout=stackLayout;horizontal=1;startSize=26;horizontalStack=0;resizeParent=1;resizeParentMax=0;resizeLast=0;collapsible=1;marginBottom=0;strokeColor=#000000;" vertex="1" parent="1">
          <mxGeometry x="334" y="46" width="160" height="120" as="geometry" />
        </mxCell>
        <mxCell id="fov7g100w5kmryv_c-La-40" value="- Nome: String&#xa;- Endereço: String &#xa;- Telefone: String &#xa;- Idade: int&#xa;- Sexo: String &#xa;- CPF: String" style="text;strokeColor=none;fillColor=none;align=left;verticalAlign=top;spacingLeft=4;spacingRight=4;overflow=hidden;rotatable=0;points=[[0,0.5],[1,0.5]];portConstraint=eastwest;" vertex="1" parent="fov7g100w5kmryv_c-La-39">
          <mxGeometry y="26" width="160" height="94" as="geometry" />
        </mxCell>
        <mxCell id="fov7g100w5kmryv_c-La-63" style="edgeStyle=none;rounded=0;orthogonalLoop=1;jettySize=auto;html=1;entryX=0.056;entryY=1.009;entryDx=0;entryDy=0;entryPerimeter=0;strokeWidth=2;" edge="1" parent="1" source="fov7g100w5kmryv_c-La-49" target="fov7g100w5kmryv_c-La-40">
          <mxGeometry relative="1" as="geometry" />
        </mxCell>
        <mxCell id="fov7g100w5kmryv_c-La-49" value="Paciente" style="swimlane;fontStyle=1;align=center;verticalAlign=top;childLayout=stackLayout;horizontal=1;startSize=26;horizontalStack=0;resizeParent=1;resizeParentMax=0;resizeLast=0;collapsible=1;marginBottom=0;strokeColor=#000000;" vertex="1" parent="1">
          <mxGeometry x="120" y="200" width="160" height="70" as="geometry" />
        </mxCell>
        <mxCell id="fov7g100w5kmryv_c-La-51" value="" style="line;strokeWidth=1;fillColor=none;align=left;verticalAlign=middle;spacingTop=-1;spacingLeft=3;spacingRight=3;rotatable=0;labelPosition=right;points=[];portConstraint=eastwest;strokeColor=inherit;" vertex="1" parent="fov7g100w5kmryv_c-La-49">
          <mxGeometry y="26" width="160" height="8" as="geometry" />
        </mxCell>
        <mxCell id="fov7g100w5kmryv_c-La-52" value="+ marcarConsulta()" style="text;strokeColor=none;fillColor=none;align=left;verticalAlign=top;spacingLeft=4;spacingRight=4;overflow=hidden;rotatable=0;points=[[0,0.5],[1,0.5]];portConstraint=eastwest;" vertex="1" parent="fov7g100w5kmryv_c-La-49">
          <mxGeometry y="34" width="160" height="36" as="geometry" />
        </mxCell>
        <mxCell id="fov7g100w5kmryv_c-La-64" style="edgeStyle=none;rounded=0;orthogonalLoop=1;jettySize=auto;html=1;entryX=1.005;entryY=0.978;entryDx=0;entryDy=0;entryPerimeter=0;strokeWidth=2;" edge="1" parent="1" source="fov7g100w5kmryv_c-La-56" target="fov7g100w5kmryv_c-La-40">
          <mxGeometry relative="1" as="geometry" />
        </mxCell>
        <mxCell id="fov7g100w5kmryv_c-La-56" value="Medico" style="swimlane;fontStyle=1;align=center;verticalAlign=top;childLayout=stackLayout;horizontal=1;startSize=26;horizontalStack=0;resizeParent=1;resizeParentMax=0;resizeLast=0;collapsible=1;marginBottom=0;strokeColor=#000000;" vertex="1" parent="1">
          <mxGeometry x="560" y="200" width="240" height="130" as="geometry" />
        </mxCell>
        <mxCell id="fov7g100w5kmryv_c-La-62" value="- CRM: String&#xa;- Especialidade: String&#xa;" style="text;strokeColor=none;fillColor=none;align=left;verticalAlign=top;spacingLeft=4;spacingRight=4;overflow=hidden;rotatable=0;points=[[0,0.5],[1,0.5]];portConstraint=eastwest;" vertex="1" parent="fov7g100w5kmryv_c-La-56">
          <mxGeometry y="26" width="240" height="34" as="geometry" />
        </mxCell>
        <mxCell id="fov7g100w5kmryv_c-La-57" value="" style="line;strokeWidth=1;fillColor=none;align=left;verticalAlign=middle;spacingTop=-1;spacingLeft=3;spacingRight=3;rotatable=0;labelPosition=right;points=[];portConstraint=eastwest;strokeColor=inherit;" vertex="1" parent="fov7g100w5kmryv_c-La-56">
          <mxGeometry y="60" width="240" height="8" as="geometry" />
        </mxCell>
        <mxCell id="fov7g100w5kmryv_c-La-58" value="+ realizarDiagnostico(Paciente)&#xa;+ pedirExame()&#xa;+ receitarMedicamento(): Medicamento" style="text;strokeColor=none;fillColor=none;align=left;verticalAlign=top;spacingLeft=4;spacingRight=4;overflow=hidden;rotatable=0;points=[[0,0.5],[1,0.5]];portConstraint=eastwest;" vertex="1" parent="fov7g100w5kmryv_c-La-56">
          <mxGeometry y="68" width="240" height="62" as="geometry" />
        </mxCell>
        <mxCell id="fov7g100w5kmryv_c-La-65" value="Consulta" style="swimlane;fontStyle=1;align=center;verticalAlign=top;childLayout=stackLayout;horizontal=1;startSize=26;horizontalStack=0;resizeParent=1;resizeParentMax=0;resizeLast=0;collapsible=1;marginBottom=0;strokeColor=#000000;" vertex="1" parent="1">
          <mxGeometry x="120" y="320" width="160" height="114" as="geometry" />
        </mxCell>
        <mxCell id="fov7g100w5kmryv_c-La-66" value="- Horário : time&#xa;- Data : Date&#xa;- Valor : Double" style="text;strokeColor=none;fillColor=none;align=left;verticalAlign=top;spacingLeft=4;spacingRight=4;overflow=hidden;rotatable=0;points=[[0,0.5],[1,0.5]];portConstraint=eastwest;" vertex="1" parent="fov7g100w5kmryv_c-La-65">
          <mxGeometry y="26" width="160" height="54" as="geometry" />
        </mxCell>
        <mxCell id="fov7g100w5kmryv_c-La-67" value="" style="line;strokeWidth=1;fillColor=none;align=left;verticalAlign=middle;spacingTop=-1;spacingLeft=3;spacingRight=3;rotatable=0;labelPosition=right;points=[];portConstraint=eastwest;strokeColor=inherit;" vertex="1" parent="fov7g100w5kmryv_c-La-65">
          <mxGeometry y="80" width="160" height="8" as="geometry" />
        </mxCell>
        <mxCell id="fov7g100w5kmryv_c-La-68" value="+ method(type): type" style="text;strokeColor=none;fillColor=none;align=left;verticalAlign=top;spacingLeft=4;spacingRight=4;overflow=hidden;rotatable=0;points=[[0,0.5],[1,0.5]];portConstraint=eastwest;" vertex="1" parent="fov7g100w5kmryv_c-La-65">
          <mxGeometry y="88" width="160" height="26" as="geometry" />
        </mxCell>
        <mxCell id="fov7g100w5kmryv_c-La-73" value="Medicamento" style="swimlane;fontStyle=1;align=center;verticalAlign=top;childLayout=stackLayout;horizontal=1;startSize=26;horizontalStack=0;resizeParent=1;resizeParentMax=0;resizeLast=0;collapsible=1;marginBottom=0;strokeColor=#000000;" vertex="1" parent="1">
          <mxGeometry x="120" y="470" width="160" height="88" as="geometry" />
        </mxCell>
        <mxCell id="fov7g100w5kmryv_c-La-74" value="- Nome: String &#xa;- Laboratório: String &#xa;- Princípio Ativo: String" style="text;strokeColor=none;fillColor=none;align=left;verticalAlign=top;spacingLeft=4;spacingRight=4;overflow=hidden;rotatable=0;points=[[0,0.5],[1,0.5]];portConstraint=eastwest;" vertex="1" parent="fov7g100w5kmryv_c-La-73">
          <mxGeometry y="26" width="160" height="54" as="geometry" />
        </mxCell>
        <mxCell id="fov7g100w5kmryv_c-La-75" value="" style="line;strokeWidth=1;fillColor=none;align=left;verticalAlign=middle;spacingTop=-1;spacingLeft=3;spacingRight=3;rotatable=0;labelPosition=right;points=[];portConstraint=eastwest;strokeColor=inherit;" vertex="1" parent="fov7g100w5kmryv_c-La-73">
          <mxGeometry y="80" width="160" height="8" as="geometry" />
        </mxCell>
      </root>
    </mxGraphModel>
  </diagram>
</mxfile>
